<svg width="1240" height="363" viewBox="0 0 1240 363" fill="none" xmlns="http://www.w3.org/2000/svg">
<path d="M697.67 114.731C676.971 114.731 660.184 120.777 647.807 132.798V85.7102L591.188 68.4968V298.389H647.807V285.23C660.184 297.251 676.971 303.297 697.67 303.297C721.214 303.297 741.557 294.05 758.201 275.912C774.774 257.774 783.168 235.297 783.168 209.05C783.168 182.803 774.774 160.326 758.201 142.187C741.557 124.049 721.214 114.802 697.67 114.802V114.731ZM715.594 238.497C708.268 245.753 698.736 249.38 687.285 249.38C675.833 249.38 666.301 245.682 658.975 238.497C651.648 231.313 647.95 221.355 647.95 208.979C647.95 196.602 651.648 186.644 658.975 179.46C666.301 172.204 675.833 168.577 687.285 168.577C698.736 168.577 708.268 172.275 715.594 179.46C722.921 186.715 726.69 196.602 726.69 208.979C726.69 221.355 722.992 231.313 715.594 238.497Z" fill="white"/>
<path d="M448.608 299.102C432.746 294.905 419.018 287.152 407.85 276.055C389.926 258.273 380.892 235.583 380.892 208.553C380.892 181.808 389.854 159.189 407.495 141.264C425.135 123.339 448.181 114.306 475.851 114.306C484.528 114.306 492.851 115.373 500.533 117.364C515.755 121.348 529.269 129.457 540.721 141.335C557.935 159.26 566.612 181.879 566.612 208.624C566.612 216.164 565.901 223.348 564.479 230.034L564.123 231.742H441.708C446.047 241.202 453.516 247.177 464.328 250.022C469.022 251.231 474.428 251.871 480.332 251.871C493.846 251.871 504.587 247.675 512.269 239.281L513.407 238.001L558.788 264.106L557.437 266.026C539.868 290.495 513.692 302.871 479.621 302.871C468.524 302.871 458.068 301.591 448.608 299.102ZM487.374 166.444C483.817 165.519 479.834 165.022 475.495 165.022C457.215 165.022 445.692 172.632 440.357 188.352H509.637C505.654 176.545 498.399 169.361 487.445 166.444H487.374Z" fill="white"/>
<path d="M1199.89 304.862C1221.49 304.862 1239.01 287.347 1239.01 265.741C1239.01 244.134 1221.49 226.619 1199.89 226.619C1178.28 226.619 1160.76 244.134 1160.76 265.741C1160.76 287.347 1178.28 304.862 1199.89 304.862Z" fill="white"/>
<path d="M869.502 303.223C832.017 303.223 806.125 288.855 792.539 260.474L791.686 258.696L841.05 230.599L841.904 233.018C846.243 245.892 855.276 252.152 869.573 252.152C886.289 252.152 886.289 245.608 886.289 243.474C886.289 240.984 883.728 238.708 878.749 236.716C872.987 234.44 865.803 232.164 857.481 229.959C849.017 227.754 840.481 224.767 832.017 221.139C823.339 217.44 815.87 211.465 809.682 203.57C803.493 195.532 800.364 185.574 800.364 173.98C800.364 155.202 807.263 140.406 820.92 130.021C834.364 119.779 851.222 114.586 870.925 114.586C885.649 114.586 899.234 117.929 911.398 124.473C923.561 131.017 933.448 140.62 940.845 152.997L941.984 154.917L893.473 181.093L892.477 179.243C887.213 169.641 880.243 165.017 870.996 165.017C858.477 165.017 858.477 170.566 858.477 172.628C858.477 175.118 861.038 177.323 865.946 179.172C871.778 181.377 878.962 183.582 887.213 185.716C895.678 187.921 904.213 190.838 912.607 194.394C921.285 198.022 928.824 204.068 934.942 212.39C941.13 220.783 944.26 231.311 944.26 243.829C944.26 263.319 936.933 278.328 922.423 288.357C908.197 298.244 890.414 303.223 869.573 303.223H869.502Z" fill="white"/>
<path d="M1053.59 303.228C1027.28 303.228 1004.73 294.052 986.518 275.914C968.237 257.776 958.99 235.228 958.99 208.981C958.99 182.734 968.237 160.186 986.518 142.048C1004.73 123.909 1027.35 114.734 1053.59 114.734C1079.84 114.734 1102.46 123.909 1120.74 142.048C1138.95 160.186 1148.27 182.734 1148.27 208.981C1148.27 235.228 1139.02 257.776 1120.74 275.914C1102.46 294.052 1079.91 303.228 1053.59 303.228ZM1053.59 169.931C1042.85 169.931 1033.75 173.629 1026.49 180.813C1019.24 188.069 1015.61 197.529 1015.61 208.981C1015.61 220.433 1019.31 229.893 1026.49 237.148C1033.75 244.404 1042.85 248.031 1053.59 248.031C1064.33 248.031 1073.51 244.333 1080.69 237.148C1087.95 229.893 1091.58 220.433 1091.58 208.981C1091.58 197.529 1087.88 188.069 1080.69 180.813C1073.44 173.558 1064.33 169.931 1053.59 169.931Z" fill="white"/>
<path d="M365.749 0L280.537 200.871L231.67 80.2346H163.599L192.122 150.44L143.327 264.817L68.7116 80.2346H0L114.021 362.265H170.925L225.624 233.52L251.16 298.39H308.277L427.063 18.5649L365.749 0Z" fill="white"/>
</svg>
